REM DIRINDEX 1\2\4\18,1\2\4\19,1\2\5\20,1\2\5\21,1\2\6\22,1\2\7\23,1\2\8\24,1\2\8\25,1\2\9\26,1\2\10\27,1\3\11\28,1\3\11\29,1\3\11\30,1\3\11\31,1\3\12\32,1\3\12\33,1\3\12\34,1\3\12\35,1\3\13\36,1\3\13\37,1\3\14\38,1\3\14\39,1\3\15\40,1\3\15\41,1\3\15\42,1\3\16\43,1\3\16\44,1\3\17\45,1\3\17\46
REM DIRNAME folder01,folder02,folder03,folder04,folder05,folder06,folder07,folder08,folder09,folder10,folder11,folder12,folder13,folder14,folder15,folder16,folder17,folder18,folder19,folder20,folder21,folder22,folder23,folder24,folder25,folder26,folder27,folder28,folder29,folder30,folder31,folder32,folder33,folder34,folder35,folder36,folder37,folder38,folder39,folder40,folder41,folder42,folder43,folder44,folder45,folder46
TITLE ""
FILE "13.mp3" MP3
  TRACK 01 AUDIO
    TITLE "0:"
    INDEX 01 00:00:00
  TRACK 02 AUDIO
    TITLE "28:cjc023_6721"
    INDEX 01 00:00:13
  TRACK 03 AUDIO
    TITLE "0:"
    INDEX 01 00:01:34
  TRACK 04 AUDIO
    TITLE "29:cjc023_6722"
    INDEX 01 00:02:02
  TRACK 05 AUDIO
    TITLE "0:"
    INDEX 01 00:03:72
  TRACK 06 AUDIO
    TITLE "30:cjc023_6723"
    INDEX 01 00:04:25
  TRACK 07 AUDIO
    TITLE "0:"
    INDEX 01 00:06:33
  TRACK 08 AUDIO
    TITLE "31:cjc023_6724"
    INDEX 01 00:06:57
  TRACK 09 AUDIO
    TITLE "0:"
    INDEX 01 00:08:66
  TRACK 10 AUDIO
    TITLE "28:cjc023_6725"
    INDEX 01 00:09:67
  TRACK 11 AUDIO
    TITLE "0:"
    INDEX 01 00:11:15
  TRACK 12 AUDIO
    TITLE "29:cjc023_6726"
    INDEX 01 00:11:62
  TRACK 13 AUDIO
    TITLE "0:"
    INDEX 01 00:13:37
  TRACK 14 AUDIO
    TITLE "30:cjc023_6727"
    INDEX 01 00:13:61
  TRACK 15 AUDIO
    TITLE "0:"
    INDEX 01 00:15:64
  TRACK 16 AUDIO
    TITLE "31:cjc023_6728"
    INDEX 01 00:16:12
  TRACK 17 AUDIO
    TITLE "0:"
    INDEX 01 00:18:17
  TRACK 18 AUDIO
    TITLE "28:cjc023_6729"
    INDEX 01 00:19:16
  TRACK 19 AUDIO
    TITLE "0:"
    INDEX 01 00:20:18
  TRACK 20 AUDIO
    TITLE "29:cjc023_6730"
    INDEX 01 00:20:65
  TRACK 21 AUDIO
    TITLE "0:"
    INDEX 01 00:22:52
  TRACK 22 AUDIO
    TITLE "30:cjc023_6731"
    INDEX 01 00:23:01
  TRACK 23 AUDIO
    TITLE "0:"
    INDEX 01 00:24:37
  TRACK 24 AUDIO
    TITLE "31:cjc023_6732"
    INDEX 01 00:24:61
  TRACK 25 AUDIO
    TITLE "0:"
    INDEX 01 00:26:22
  TRACK 26 AUDIO
    TITLE "28:cjc023_6733"
    INDEX 01 00:27:20
  TRACK 27 AUDIO
    TITLE "0:"
    INDEX 01 00:28:41
  TRACK 28 AUDIO
    TITLE "29:cjc023_6734"
    INDEX 01 00:29:13
  TRACK 29 AUDIO
    TITLE "0:"
    INDEX 01 00:31:10
  TRACK 30 AUDIO
    TITLE "30:cjc023_6735"
    INDEX 01 00:31:33
  TRACK 31 AUDIO
    TITLE "0:"
    INDEX 01 00:33:58
  TRACK 32 AUDIO
    TITLE "31:cjc023_6736"
    INDEX 01 00:34:08
  TRACK 33 AUDIO
    TITLE "0:"
    INDEX 01 00:36:33
  TRACK 34 AUDIO
    TITLE "28:cjc023_6737"
    INDEX 01 00:37:36
  TRACK 35 AUDIO
    TITLE "0:"
    INDEX 01 00:38:41
  TRACK 36 AUDIO
    TITLE "29:cjc023_6738"
    INDEX 01 00:39:13
  TRACK 37 AUDIO
    TITLE "0:"
    INDEX 01 00:41:00
  TRACK 38 AUDIO
    TITLE "30:cjc023_6739"
    INDEX 01 00:41:28
  TRACK 39 AUDIO
    TITLE "0:"
    INDEX 01 00:43:13
  TRACK 40 AUDIO
    TITLE "31:cjc023_6740"
    INDEX 01 00:43:44
  TRACK 41 AUDIO
    TITLE "0:"
    INDEX 01 00:45:28
  TRACK 42 AUDIO
    TITLE "28:cjc023_6741"
    INDEX 01 00:46:23
  TRACK 43 AUDIO
    TITLE "0:"
    INDEX 01 00:47:62
  TRACK 44 AUDIO
    TITLE "29:cjc023_6742"
    INDEX 01 00:48:40
  TRACK 45 AUDIO
    TITLE "0:"
    INDEX 01 00:51:32
  TRACK 46 AUDIO
    TITLE "30:cjc023_6743"
    INDEX 01 00:51:52
  TRACK 47 AUDIO
    TITLE "0:"
    INDEX 01 00:54:58
  TRACK 48 AUDIO
    TITLE "31:cjc023_6744"
    INDEX 01 00:55:08
  TRACK 49 AUDIO
    TITLE "0:"
    INDEX 01 00:58:13
  TRACK 50 AUDIO
    TITLE "28:cjc023_6745"
    INDEX 01 00:59:14
  TRACK 51 AUDIO
    TITLE "0:"
    INDEX 01 01:00:35
  TRACK 52 AUDIO
    TITLE "29:cjc023_6746"
    INDEX 01 01:01:09
  TRACK 53 AUDIO
    TITLE "0:"
    INDEX 01 01:04:17
  TRACK 54 AUDIO
    TITLE "30:cjc023_6747"
    INDEX 01 01:04:41
  TRACK 55 AUDIO
    TITLE "0:"
    INDEX 01 01:06:65
  TRACK 56 AUDIO
    TITLE "31:cjc023_6748"
    INDEX 01 01:07:15
  TRACK 57 AUDIO
    TITLE "0:"
    INDEX 01 01:09:40
  TRACK 58 AUDIO
    TITLE "28:cjc023_6749"
    INDEX 01 01:10:41
  TRACK 59 AUDIO
    TITLE "0:"
    INDEX 01 01:11:60
  TRACK 60 AUDIO
    TITLE "29:cjc023_6750"
    INDEX 01 01:12:30
  TRACK 61 AUDIO
    TITLE "0:"
    INDEX 01 01:15:35
  TRACK 62 AUDIO
    TITLE "30:cjc023_6751"
    INDEX 01 01:15:58
  TRACK 63 AUDIO
    TITLE "0:"
    INDEX 01 01:18:64
  TRACK 64 AUDIO
    TITLE "31:cjc023_6752"
    INDEX 01 01:19:11
  TRACK 65 AUDIO
    TITLE "0:"
    INDEX 01 01:22:15
  TRACK 66 AUDIO
    TITLE "28:cjc023_6753"
    INDEX 01 01:23:13
  TRACK 67 AUDIO
    TITLE "0:"
    INDEX 01 01:24:24
  TRACK 68 AUDIO
    TITLE "29:cjc023_6754"
    INDEX 01 01:24:73
  TRACK 69 AUDIO
    TITLE "0:"
    INDEX 01 01:26:34
  TRACK 70 AUDIO
    TITLE "30:cjc023_6755"
    INDEX 01 01:26:58
  TRACK 71 AUDIO
    TITLE "0:"
    INDEX 01 01:28:27
  TRACK 72 AUDIO
    TITLE "31:cjc023_6756"
    INDEX 01 01:28:53
  TRACK 73 AUDIO
    TITLE "0:"
    INDEX 01 01:30:22
  TRACK 74 AUDIO
    TITLE "28:cjc023_6757"
    INDEX 01 01:31:24
  TRACK 75 AUDIO
    TITLE "0:"
    INDEX 01 01:32:39
  TRACK 76 AUDIO
    TITLE "29:cjc023_6758"
    INDEX 01 01:33:13
  TRACK 77 AUDIO
    TITLE "0:"
    INDEX 01 01:34:71
  TRACK 78 AUDIO
    TITLE "30:cjc023_6759"
    INDEX 01 01:35:18
  TRACK 79 AUDIO
    TITLE "0:"
    INDEX 01 01:36:70
  TRACK 80 AUDIO
    TITLE "31:cjc023_6760"
    INDEX 01 01:37:21
  TRACK 81 AUDIO
    TITLE "0:"
    INDEX 01 01:38:73
  TRACK 82 AUDIO
    TITLE "28:cjc023_6761"
    INDEX 01 01:39:68
  TRACK 83 AUDIO
    TITLE "0:"
    INDEX 01 01:41:16
  TRACK 84 AUDIO
    TITLE "29:cjc023_6762"
    INDEX 01 01:41:59
  TRACK 85 AUDIO
    TITLE "0:"
    INDEX 01 01:44:52
  TRACK 86 AUDIO
    TITLE "30:cjc023_6763"
    INDEX 01 01:45:02
  TRACK 87 AUDIO
    TITLE "0:"
    INDEX 01 01:47:09
  TRACK 88 AUDIO
    TITLE "31:cjc023_6764"
    INDEX 01 01:47:31
  TRACK 89 AUDIO
    TITLE "0:"
    INDEX 01 01:49:37
  TRACK 90 AUDIO
    TITLE "28:cjc023_6765"
    INDEX 01 01:50:33
  TRACK 91 AUDIO
    TITLE "0:"
    INDEX 01 01:51:50
  TRACK 92 AUDIO
    TITLE "29:cjc023_6766"
    INDEX 01 01:52:26
  TRACK 93 AUDIO
    TITLE "0:"
    INDEX 01 01:53:70
  TRACK 94 AUDIO
    TITLE "30:cjc023_6767"
    INDEX 01 01:54:15
  TRACK 95 AUDIO
    TITLE "0:"
    INDEX 01 01:56:08
  TRACK 96 AUDIO
    TITLE "31:cjc023_6768"
    INDEX 01 01:56:28
  TRACK 97 AUDIO
    TITLE "0:"
    INDEX 01 01:58:21
  TRACK 98 AUDIO
    TITLE "28:cjc023_6769"
    INDEX 01 01:59:18
  TRACK 99 AUDIO
    TITLE "0:"
    INDEX 01 02:00:49
  TRACK 100 AUDIO
    TITLE "29:cjc023_6770"
    INDEX 01 02:01:21
  TRACK 101 AUDIO
    TITLE "0:"
    INDEX 01 02:03:69
  TRACK 102 AUDIO
    TITLE "30:cjc023_6771"
    INDEX 01 02:04:17
  TRACK 103 AUDIO
    TITLE "0:"
    INDEX 01 02:06:59
  TRACK 104 AUDIO
    TITLE "31:cjc023_6772"
    INDEX 01 02:07:02
  TRACK 105 AUDIO
    TITLE "0:"
    INDEX 01 02:09:42
  TRACK 106 AUDIO
    TITLE "28:cjc023_6773"
    INDEX 01 02:10:38
  TRACK 107 AUDIO
    TITLE "0:"
    INDEX 01 02:11:55
  TRACK 108 AUDIO
    TITLE "29:cjc023_6774"
    INDEX 01 02:12:25
  TRACK 109 AUDIO
    TITLE "0:"
    INDEX 01 02:13:73
  TRACK 110 AUDIO
    TITLE "30:cjc023_6775"
    INDEX 01 02:14:20
  TRACK 111 AUDIO
    TITLE "0:"
    INDEX 01 02:16:34
  TRACK 112 AUDIO
    TITLE "31:cjc023_6776"
    INDEX 01 02:16:58
  TRACK 113 AUDIO
    TITLE "0:"
    INDEX 01 02:18:70
  TRACK 114 AUDIO
    TITLE "28:cjc023_6777"
    INDEX 01 02:19:70
  TRACK 115 AUDIO
    TITLE "0:"
    INDEX 01 02:21:10
  TRACK 116 AUDIO
    TITLE "29:cjc023_6778"
    INDEX 01 02:21:59
  TRACK 117 AUDIO
    TITLE "0:"
    INDEX 01 02:23:32
  TRACK 118 AUDIO
    TITLE "30:cjc023_6779"
    INDEX 01 02:23:52
  TRACK 119 AUDIO
    TITLE "0:"
    INDEX 01 02:25:35
  TRACK 120 AUDIO
    TITLE "31:cjc023_6780"
    INDEX 01 02:25:57
  TRACK 121 AUDIO
    TITLE "0:"
    INDEX 01 02:27:38
  TRACK 122 AUDIO
    TITLE "28:cjc023_6781"
    INDEX 01 02:28:37
  TRACK 123 AUDIO
    TITLE "0:"
    INDEX 01 02:29:57
  TRACK 124 AUDIO
    TITLE "29:cjc023_6782"
    INDEX 01 02:30:29
  TRACK 125 AUDIO
    TITLE "0:"
    INDEX 01 02:32:25
  TRACK 126 AUDIO
    TITLE "30:cjc023_6783"
    INDEX 01 02:32:51
  TRACK 127 AUDIO
    TITLE "0:"
    INDEX 01 02:34:36
  TRACK 128 AUDIO
    TITLE "31:cjc023_6784"
    INDEX 01 02:34:58
  TRACK 129 AUDIO
    TITLE "0:"
    INDEX 01 02:36:41
  TRACK 130 AUDIO
    TITLE "28:cjc023_6785"
    INDEX 01 02:37:42
  TRACK 131 AUDIO
    TITLE "0:"
    INDEX 01 02:38:71
  TRACK 132 AUDIO
    TITLE "29:cjc023_6786"
    INDEX 01 02:39:45
  TRACK 133 AUDIO
    TITLE "0:"
    INDEX 01 02:44:01
  TRACK 134 AUDIO
    TITLE "30:cjc023_6787"
    INDEX 01 02:44:23
  TRACK 135 AUDIO
    TITLE "0:"
    INDEX 01 02:47:54
  TRACK 136 AUDIO
    TITLE "31:cjc023_6788"
    INDEX 01 02:48:03
  TRACK 137 AUDIO
    TITLE "0:"
    INDEX 01 02:51:31
  TRACK 138 AUDIO
    TITLE "28:cjc023_6789"
    INDEX 01 02:52:32
  TRACK 139 AUDIO
    TITLE "0:"
    INDEX 01 02:53:49
  TRACK 140 AUDIO
    TITLE "29:cjc023_6790"
    INDEX 01 02:54:17
  TRACK 141 AUDIO
    TITLE "0:"
    INDEX 01 02:56:14
  TRACK 142 AUDIO
    TITLE "30:cjc023_6791"
    INDEX 01 02:56:36
  TRACK 143 AUDIO
    TITLE "0:"
    INDEX 01 02:58:17
  TRACK 144 AUDIO
    TITLE "31:cjc023_6792"
    INDEX 01 02:58:41
  TRACK 145 AUDIO
    TITLE "0:"
    INDEX 01 03:00:22
  TRACK 146 AUDIO
    TITLE "28:cjc023_6793"
    INDEX 01 03:01:21
  TRACK 147 AUDIO
    TITLE "0:"
    INDEX 01 03:02:38
  TRACK 148 AUDIO
    TITLE "29:cjc023_6794"
    INDEX 01 03:03:08
  TRACK 149 AUDIO
    TITLE "0:"
    INDEX 01 03:04:45
  TRACK 150 AUDIO
    TITLE "30:cjc023_6795"
    INDEX 01 03:04:71
  TRACK 151 AUDIO
    TITLE "0:"
    INDEX 01 03:06:73
  TRACK 152 AUDIO
    TITLE "31:cjc023_6796"
    INDEX 01 03:07:18
  TRACK 153 AUDIO
    TITLE "0:"
    INDEX 01 03:09:19
  TRACK 154 AUDIO
    TITLE "28:cjc023_6797"
    INDEX 01 03:10:14
  TRACK 155 AUDIO
    TITLE "0:"
    INDEX 01 03:11:29
  TRACK 156 AUDIO
    TITLE "29:cjc023_6798"
    INDEX 01 03:12:03
  TRACK 157 AUDIO
    TITLE "0:"
    INDEX 01 03:14:26
  TRACK 158 AUDIO
    TITLE "30:cjc023_6799"
    INDEX 01 03:14:47
  TRACK 159 AUDIO
    TITLE "0:"
    INDEX 01 03:16:52
  TRACK 160 AUDIO
    TITLE "31:cjc023_6800"
    INDEX 01 03:16:72
  TRACK 161 AUDIO
    TITLE "0:"
    INDEX 01 03:19:03
  TRACK 162 AUDIO
    TITLE "28:cjc023_6801"
    INDEX 01 03:19:72
  TRACK 163 AUDIO
    TITLE "0:"
    INDEX 01 03:21:14
  TRACK 164 AUDIO
    TITLE "29:cjc023_6802"
    INDEX 01 03:21:63
  TRACK 165 AUDIO
    TITLE "0:"
    INDEX 01 03:25:16
  TRACK 166 AUDIO
    TITLE "30:cjc023_6803"
    INDEX 01 03:25:43
  TRACK 167 AUDIO
    TITLE "0:"
    INDEX 01 03:29:02
  TRACK 168 AUDIO
    TITLE "31:cjc023_6804"
    INDEX 01 03:29:25
  TRACK 169 AUDIO
    TITLE "0:"
    INDEX 01 03:32:59
  TRACK 170 AUDIO
    TITLE "28:cjc023_6805"
    INDEX 01 03:33:58
  TRACK 171 AUDIO
    TITLE "0:"
    INDEX 01 03:34:68
  TRACK 172 AUDIO
    TITLE "29:cjc023_6806"
    INDEX 01 03:35:40
  TRACK 173 AUDIO
    TITLE "0:"
    INDEX 01 03:38:13
  TRACK 174 AUDIO
    TITLE "30:cjc023_6807"
    INDEX 01 03:38:36
  TRACK 175 AUDIO
    TITLE "0:"
    INDEX 01 03:41:13
  TRACK 176 AUDIO
    TITLE "31:cjc023_6808"
    INDEX 01 03:41:36
  TRACK 177 AUDIO
    TITLE "0:"
    INDEX 01 03:44:15
  TRACK 178 AUDIO
    TITLE "28:cjc023_6809"
    INDEX 01 03:45:11
  TRACK 179 AUDIO
    TITLE "0:"
    INDEX 01 03:46:22
  TRACK 180 AUDIO
    TITLE "29:cjc023_6810"
    INDEX 01 03:47:02
  TRACK 181 AUDIO
    TITLE "0:"
    INDEX 01 03:49:54
  TRACK 182 AUDIO
    TITLE "30:cjc023_6811"
    INDEX 01 03:50:00
  TRACK 183 AUDIO
    TITLE "0:"
    INDEX 01 03:53:00
  TRACK 184 AUDIO
    TITLE "31:cjc023_6812"
    INDEX 01 03:53:22
  TRACK 185 AUDIO
    TITLE "0:"
    INDEX 01 03:56:22
  TRACK 186 AUDIO
    TITLE "28:cjc023_6813"
    INDEX 01 03:57:20
  TRACK 187 AUDIO
    TITLE "0:"
    INDEX 01 03:58:43
  TRACK 188 AUDIO
    TITLE "29:cjc023_6814"
    INDEX 01 03:59:19
  TRACK 189 AUDIO
    TITLE "0:"
    INDEX 01 04:02:13
  TRACK 190 AUDIO
    TITLE "30:cjc023_6815"
    INDEX 01 04:02:35
  TRACK 191 AUDIO
    TITLE "0:"
    INDEX 01 04:05:15
  TRACK 192 AUDIO
    TITLE "31:cjc023_6816"
    INDEX 01 04:05:35
  TRACK 193 AUDIO
    TITLE "0:"
    INDEX 01 04:08:14
  TRACK 194 AUDIO
    TITLE "28:cjc023_6817"
    INDEX 01 04:09:09
  TRACK 195 AUDIO
    TITLE "0:"
    INDEX 01 04:10:40
  TRACK 196 AUDIO
    TITLE "29:cjc023_6818"
    INDEX 01 04:11:12
  TRACK 197 AUDIO
    TITLE "0:"
    INDEX 01 04:14:28
  TRACK 198 AUDIO
    TITLE "30:cjc023_6819"
    INDEX 01 04:14:52
  TRACK 199 AUDIO
    TITLE "0:"
    INDEX 01 04:18:24
  TRACK 200 AUDIO
    TITLE "31:cjc023_6820"
    INDEX 01 04:18:51
  TRACK 201 AUDIO
    TITLE "0:"
    INDEX 01 04:22:26
  TRACK 202 AUDIO
    TITLE "28:cjc023_6821"
    INDEX 01 04:23:25
  TRACK 203 AUDIO
    TITLE "0:"
    INDEX 01 04:24:34
  TRACK 204 AUDIO
    TITLE "29:cjc023_6822"
    INDEX 01 04:25:08
  TRACK 205 AUDIO
    TITLE "0:"
    INDEX 01 04:28:54
  TRACK 206 AUDIO
    TITLE "30:cjc023_6823"
    INDEX 01 04:29:00
  TRACK 207 AUDIO
    TITLE "0:"
    INDEX 01 04:31:38
  TRACK 208 AUDIO
    TITLE "31:cjc023_6824"
    INDEX 01 04:31:60
  TRACK 209 AUDIO
    TITLE "0:"
    INDEX 01 04:34:21
  TRACK 210 AUDIO
    TITLE "28:cjc023_6825"
    INDEX 01 04:35:20
  TRACK 211 AUDIO
    TITLE "0:"
    INDEX 01 04:36:45
  TRACK 212 AUDIO
    TITLE "29:cjc023_6826"
    INDEX 01 04:37:17
  TRACK 213 AUDIO
    TITLE "0:"
    INDEX 01 04:39:36
  TRACK 214 AUDIO
    TITLE "30:cjc023_6827"
    INDEX 01 04:39:65
  TRACK 215 AUDIO
    TITLE "0:"
    INDEX 01 04:41:68
  TRACK 216 AUDIO
    TITLE "31:cjc023_6828"
    INDEX 01 04:42:20
  TRACK 217 AUDIO
    TITLE "0:"
    INDEX 01 04:44:25
  TRACK 218 AUDIO
    TITLE "28:cjc023_6829"
    INDEX 01 04:45:23
  TRACK 219 AUDIO
    TITLE "0:"
    INDEX 01 04:46:54
  TRACK 220 AUDIO
    TITLE "29:cjc023_6830"
    INDEX 01 04:47:26
  TRACK 221 AUDIO
    TITLE "0:"
    INDEX 01 04:48:56
  TRACK 222 AUDIO
    TITLE "30:cjc023_6831"
    INDEX 01 04:49:01
  TRACK 223 AUDIO
    TITLE "0:"
    INDEX 01 04:51:04
  TRACK 224 AUDIO
    TITLE "31:cjc023_6832"
    INDEX 01 04:51:25
  TRACK 225 AUDIO
    TITLE "0:"
    INDEX 01 04:53:30
  TRACK 226 AUDIO
    TITLE "28:cjc023_6833"
    INDEX 01 04:54:29
  TRACK 227 AUDIO
    TITLE "0:"
    INDEX 01 04:55:60
  TRACK 228 AUDIO
    TITLE "29:cjc023_6834"
    INDEX 01 04:56:34
  TRACK 229 AUDIO
    TITLE "0:"
    INDEX 01 04:58:49
  TRACK 230 AUDIO
    TITLE "30:cjc023_6835"
    INDEX 01 04:58:72
  TRACK 231 AUDIO
    TITLE "0:"
    INDEX 01 05:01:16
  TRACK 232 AUDIO
    TITLE "31:cjc023_6836"
    INDEX 01 05:01:41
  TRACK 233 AUDIO
    TITLE "0:"
    INDEX 01 05:03:58
  TRACK 234 AUDIO
    TITLE "28:cjc023_6837"
    INDEX 01 05:04:57
  TRACK 235 AUDIO
    TITLE "0:"
    INDEX 01 05:06:13
  TRACK 236 AUDIO
    TITLE "29:cjc023_6838"
    INDEX 01 05:06:60
  TRACK 237 AUDIO
    TITLE "0:"
    INDEX 01 05:09:08
  TRACK 238 AUDIO
    TITLE "30:cjc023_6839"
    INDEX 01 05:09:31
  TRACK 239 AUDIO
    TITLE "0:"
    INDEX 01 05:12:10
  TRACK 240 AUDIO
    TITLE "31:cjc023_6840"
    INDEX 01 05:12:33
  TRACK 241 AUDIO
    TITLE "0:"
    INDEX 01 05:15:12
  TRACK 242 AUDIO
    TITLE "28:cjc023_6841"
    INDEX 01 05:16:12
  TRACK 243 AUDIO
    TITLE "0:"
    INDEX 01 05:17:36
  TRACK 244 AUDIO
    TITLE "29:cjc023_6842"
    INDEX 01 05:18:05
  TRACK 245 AUDIO
    TITLE "0:"
    INDEX 01 05:20:07
  TRACK 246 AUDIO
    TITLE "30:cjc023_6843"
    INDEX 01 05:20:31
  TRACK 247 AUDIO
    TITLE "0:"
    INDEX 01 05:23:02
  TRACK 248 AUDIO
    TITLE "31:cjc023_6844"
    INDEX 01 05:23:25
  TRACK 249 AUDIO
    TITLE "0:"
    INDEX 01 05:26:00
  TRACK 250 AUDIO
    TITLE "28:cjc023_6845"
    INDEX 01 05:26:71
  TRACK 251 AUDIO
    TITLE "0:"
    INDEX 01 05:28:23
  TRACK 252 AUDIO
    TITLE "29:cjc023_6846"
    INDEX 01 05:28:68
  TRACK 253 AUDIO
    TITLE "0:"
    INDEX 01 05:30:43
  TRACK 254 AUDIO
    TITLE "30:cjc023_6847"
    INDEX 01 05:30:68
  TRACK 255 AUDIO
    TITLE "0:"
    INDEX 01 05:33:14
  TRACK 256 AUDIO
    TITLE "31:cjc023_6848"
    INDEX 01 05:33:45
  TRACK 257 AUDIO
    TITLE "0:"
    INDEX 01 05:35:70
  TRACK 258 AUDIO
    TITLE "28:cjc023_6849"
    INDEX 01 05:36:73
  TRACK 259 AUDIO
    TITLE "0:"
    INDEX 01 05:38:13
  TRACK 260 AUDIO
    TITLE "29:cjc023_6850"
    INDEX 01 05:38:62
  TRACK 261 AUDIO
    TITLE "0:"
    INDEX 01 05:40:63
  TRACK 262 AUDIO
    TITLE "30:cjc023_6851"
    INDEX 01 05:41:13
  TRACK 263 AUDIO
    TITLE "0:"
    INDEX 01 05:43:67
  TRACK 264 AUDIO
    TITLE "31:cjc023_6852"
    INDEX 01 05:44:14
  TRACK 265 AUDIO
    TITLE "0:"
    INDEX 01 05:46:66
  TRACK 266 AUDIO
    TITLE "28:cjc023_6853"
    INDEX 01 05:47:63
  TRACK 267 AUDIO
    TITLE "0:"
    INDEX 01 05:49:11
  TRACK 268 AUDIO
    TITLE "29:cjc023_6854"
    INDEX 01 05:49:58
  TRACK 269 AUDIO
    TITLE "0:"
    INDEX 01 05:51:24
  TRACK 270 AUDIO
    TITLE "30:cjc023_6855"
    INDEX 01 05:51:45
  TRACK 271 AUDIO
    TITLE "0:"
    INDEX 01 05:53:36
  TRACK 272 AUDIO
    TITLE "31:cjc023_6856"
    INDEX 01 05:53:58
  TRACK 273 AUDIO
    TITLE "0:"
    INDEX 01 05:55:47
  TRACK 274 AUDIO
    TITLE "28:cjc023_6857"
    INDEX 01 05:56:44
  TRACK 275 AUDIO
    TITLE "0:"
    INDEX 01 05:57:57
  TRACK 276 AUDIO
    TITLE "29:cjc023_6858"
    INDEX 01 05:58:28
  TRACK 277 AUDIO
    TITLE "0:"
    INDEX 01 06:01:00
  TRACK 278 AUDIO
    TITLE "30:cjc023_6859"
    INDEX 01 06:01:24
  TRACK 279 AUDIO
    TITLE "0:"
    INDEX 01 06:03:56
  TRACK 280 AUDIO
    TITLE "31:cjc023_6860"
    INDEX 01 06:04:03
  TRACK 281 AUDIO
    TITLE "0:"
    INDEX 01 06:06:35
  TRACK 282 AUDIO
    TITLE "28:cjc023_6861"
    INDEX 01 06:07:42
  TRACK 283 AUDIO
    TITLE "0:"
    INDEX 01 06:08:67
  TRACK 284 AUDIO
    TITLE "29:cjc023_6862"
    INDEX 01 06:09:41
  TRACK 285 AUDIO
    TITLE "0:"
    INDEX 01 06:12:32
  TRACK 286 AUDIO
    TITLE "30:cjc023_6863"
    INDEX 01 06:12:55
  TRACK 287 AUDIO
    TITLE "0:"
    INDEX 01 06:15:53
  TRACK 288 AUDIO
    TITLE "31:cjc023_6864"
    INDEX 01 06:15:73
  TRACK 289 AUDIO
    TITLE "0:"
    INDEX 01 06:18:71
  TRACK 290 AUDIO
    TITLE "28:cjc023_6865"
    INDEX 01 06:19:65
  TRACK 291 AUDIO
    TITLE "0:"
    INDEX 01 06:21:19
  TRACK 292 AUDIO
    TITLE "29:cjc023_6866"
    INDEX 01 06:21:68
  TRACK 293 AUDIO
    TITLE "0:"
    INDEX 01 06:23:18
  TRACK 294 AUDIO
    TITLE "30:cjc023_6867"
    INDEX 01 06:23:43
  TRACK 295 AUDIO
    TITLE "0:"
    INDEX 01 06:25:15
  TRACK 296 AUDIO
    TITLE "31:cjc023_6868"
    INDEX 01 06:25:38
  TRACK 297 AUDIO
    TITLE "0:"
    INDEX 01 06:27:10
  TRACK 298 AUDIO
    TITLE "28:cjc023_6869"
    INDEX 01 06:28:07
  TRACK 299 AUDIO
    TITLE "0:"
    INDEX 01 06:29:30
  TRACK 300 AUDIO
    TITLE "29:cjc023_6870"
    INDEX 01 06:30:06
  TRACK 301 AUDIO
    TITLE "0:"
    INDEX 01 06:31:58
  TRACK 302 AUDIO
    TITLE "30:cjc023_6871"
    INDEX 01 06:32:05
  TRACK 303 AUDIO
    TITLE "0:"
    INDEX 01 06:33:73
  TRACK 304 AUDIO
    TITLE "31:cjc023_6872"
    INDEX 01 06:34:23
  TRACK 305 AUDIO
    TITLE "0:"
    INDEX 01 06:36:18
  TRACK 306 AUDIO
    TITLE "28:cjc023_6873"
    INDEX 01 06:37:16
  TRACK 307 AUDIO
    TITLE "0:"
    INDEX 01 06:38:29
  TRACK 308 AUDIO
    TITLE "29:cjc023_6874"
    INDEX 01 06:39:03
  TRACK 309 AUDIO
    TITLE "0:"
    INDEX 01 06:41:47
  TRACK 310 AUDIO
    TITLE "30:cjc023_6875"
    INDEX 01 06:41:72
  TRACK 311 AUDIO
    TITLE "0:"
    INDEX 01 06:44:67
  TRACK 312 AUDIO
    TITLE "31:cjc023_6876"
    INDEX 01 06:45:17
  TRACK 313 AUDIO
    TITLE "0:"
    INDEX 01 06:48:14
  TRACK 314 AUDIO
    TITLE "28:cjc023_6877"
    INDEX 01 06:49:09
  TRACK 315 AUDIO
    TITLE "0:"
    INDEX 01 06:50:30
  TRACK 316 AUDIO
    TITLE "29:cjc023_6878"
    INDEX 01 06:51:02
  TRACK 317 AUDIO
    TITLE "0:"
    INDEX 01 06:53:70
  TRACK 318 AUDIO
    TITLE "30:cjc023_6879"
    INDEX 01 06:54:18
  TRACK 319 AUDIO
    TITLE "0:"
    INDEX 01 06:56:43
  TRACK 320 AUDIO
    TITLE "31:cjc023_6880"
    INDEX 01 06:56:62
  TRACK 321 AUDIO
    TITLE "0:"
    INDEX 01 06:59:12
  TRACK 322 AUDIO
    TITLE "28:cjc023_6881"
    INDEX 01 07:00:07
  TRACK 323 AUDIO
    TITLE "0:"
    INDEX 01 07:01:28
  TRACK 324 AUDIO
    TITLE "29:cjc023_6882"
    INDEX 01 07:02:06
  TRACK 325 AUDIO
    TITLE "0:"
    INDEX 01 07:03:51
  TRACK 326 AUDIO
    TITLE "30:cjc023_6883"
    INDEX 01 07:03:72
  TRACK 327 AUDIO
    TITLE "0:"
    INDEX 01 07:05:38
  TRACK 328 AUDIO
    TITLE "31:cjc023_6884"
    INDEX 01 07:05:61
  TRACK 329 AUDIO
    TITLE "0:"
    INDEX 01 07:07:23
  TRACK 330 AUDIO
    TITLE "28:cjc023_6885"
    INDEX 01 07:08:22
  TRACK 331 AUDIO
    TITLE "0:"
    INDEX 01 07:09:45
  TRACK 332 AUDIO
    TITLE "29:cjc023_6886"
    INDEX 01 07:10:19
  TRACK 333 AUDIO
    TITLE "0:"
    INDEX 01 07:13:16
  TRACK 334 AUDIO
    TITLE "30:cjc023_6887"
    INDEX 01 07:13:31
  TRACK 335 AUDIO
    TITLE "0:"
    INDEX 01 07:16:20
  TRACK 336 AUDIO
    TITLE "31:cjc023_6888"
    INDEX 01 07:16:41
  TRACK 337 AUDIO
    TITLE "0:"
    INDEX 01 07:19:30
  TRACK 338 AUDIO
    TITLE "28:cjc023_6889"
    INDEX 01 07:20:29
  TRACK 339 AUDIO
    TITLE "0:"
    INDEX 01 07:21:50
  TRACK 340 AUDIO
    TITLE "29:cjc023_6890"
    INDEX 01 07:22:20
  TRACK 341 AUDIO
    TITLE "0:"
    INDEX 01 07:24:06
  TRACK 342 AUDIO
    TITLE "30:cjc023_6891"
    INDEX 01 07:24:27
  TRACK 343 AUDIO
    TITLE "0:"
    INDEX 01 07:26:10
  TRACK 344 AUDIO
    TITLE "31:cjc023_6892"
    INDEX 01 07:26:32
  TRACK 345 AUDIO
    TITLE "0:"
    INDEX 01 07:28:17
  TRACK 346 AUDIO
    TITLE "28:cjc023_6893"
    INDEX 01 07:29:13
  TRACK 347 AUDIO
    TITLE "0:"
    INDEX 01 07:30:32
  TRACK 348 AUDIO
    TITLE "29:cjc023_6894"
    INDEX 01 07:31:06
  TRACK 349 AUDIO
    TITLE "0:"
    INDEX 01 07:34:08
  TRACK 350 AUDIO
    TITLE "30:cjc023_6895"
    INDEX 01 07:34:30
  TRACK 351 AUDIO
    TITLE "0:"
    INDEX 01 07:37:59
  TRACK 352 AUDIO
    TITLE "31:cjc023_6896"
    INDEX 01 07:38:08
  TRACK 353 AUDIO
    TITLE "0:"
    INDEX 01 07:41:37
  TRACK 354 AUDIO
    TITLE "28:cjc023_6897"
    INDEX 01 07:42:35
  TRACK 355 AUDIO
    TITLE "0:"
    INDEX 01 07:43:54
  TRACK 356 AUDIO
    TITLE "29:cjc023_6898"
    INDEX 01 07:44:26
  TRACK 357 AUDIO
    TITLE "0:"
    INDEX 01 07:47:36
  TRACK 358 AUDIO
    TITLE "30:cjc023_6899"
    INDEX 01 07:47:62
  TRACK 359 AUDIO
    TITLE "0:"
    INDEX 01 07:50:56
  TRACK 360 AUDIO
    TITLE "31:cjc023_6900"
    INDEX 01 07:51:08
  TRACK 361 AUDIO
    TITLE "0:"
    INDEX 01 07:54:03
  TRACK 362 AUDIO
    TITLE "28:cjc023_6901"
    INDEX 01 07:55:04
  TRACK 363 AUDIO
    TITLE "0:"
    INDEX 01 07:56:37
  TRACK 364 AUDIO
    TITLE "29:cjc023_6902"
    INDEX 01 07:57:11
  TRACK 365 AUDIO
    TITLE "0:"
    INDEX 01 07:59:02
  TRACK 366 AUDIO
    TITLE "30:cjc023_6903"
    INDEX 01 07:59:26
  TRACK 367 AUDIO
    TITLE "0:"
    INDEX 01 08:01:32
  TRACK 368 AUDIO
    TITLE "31:cjc023_6904"
    INDEX 01 08:01:54
  TRACK 369 AUDIO
    TITLE "0:"
    INDEX 01 08:03:59
  TRACK 370 AUDIO
    TITLE "28:cjc023_6905"
    INDEX 01 08:04:54
  TRACK 371 AUDIO
    TITLE "0:"
    INDEX 01 08:06:08
  TRACK 372 AUDIO
    TITLE "29:cjc023_6906"
    INDEX 01 08:06:57
  TRACK 373 AUDIO
    TITLE "0:"
    INDEX 01 08:09:00
  TRACK 374 AUDIO
    TITLE "30:cjc023_6907"
    INDEX 01 08:09:22
  TRACK 375 AUDIO
    TITLE "0:"
    INDEX 01 08:12:01
  TRACK 376 AUDIO
    TITLE "31:cjc023_6908"
    INDEX 01 08:12:22
  TRACK 377 AUDIO
    TITLE "0:"
    INDEX 01 08:14:74
  TRACK 378 AUDIO
    TITLE "28:cjc023_6909"
    INDEX 01 08:15:74
  TRACK 379 AUDIO
    TITLE "0:"
    INDEX 01 08:17:16
  TRACK 380 AUDIO
    TITLE "29:cjc023_6910"
    INDEX 01 08:17:63
  TRACK 381 AUDIO
    TITLE "0:"
    INDEX 01 08:20:43
  TRACK 382 AUDIO
    TITLE "30:cjc023_6911"
    INDEX 01 08:20:65
  TRACK 383 AUDIO
    TITLE "0:"
    INDEX 01 08:23:32
  TRACK 384 AUDIO
    TITLE "31:cjc023_6912"
    INDEX 01 08:23:57
  TRACK 385 AUDIO
    TITLE "0:"
    INDEX 01 08:26:26
  TRACK 386 AUDIO
    TITLE "28:cjc023_6913"
    INDEX 01 08:27:26
  TRACK 387 AUDIO
    TITLE "0:"
    INDEX 01 08:28:53
  TRACK 388 AUDIO
    TITLE "29:cjc023_6914"
    INDEX 01 08:29:25
  TRACK 389 AUDIO
    TITLE "0:"
    INDEX 01 08:31:45
  TRACK 390 AUDIO
    TITLE "30:cjc023_6915"
    INDEX 01 08:31:67
  TRACK 391 AUDIO
    TITLE "0:"
    INDEX 01 08:33:50
  TRACK 392 AUDIO
    TITLE "31:cjc023_6916"
    INDEX 01 08:34:00
  TRACK 393 AUDIO
    TITLE "0:"
    INDEX 01 08:35:59
  TRACK 394 AUDIO
    TITLE "28:cjc023_6917"
    INDEX 01 08:36:58
  TRACK 395 AUDIO
    TITLE "0:"
    INDEX 01 08:37:73
  TRACK 396 AUDIO
    TITLE "29:cjc023_6918"
    INDEX 01 08:38:51
  TRACK 397 AUDIO
    TITLE "0:"
    INDEX 01 08:40:38
  TRACK 398 AUDIO
    TITLE "30:cjc023_6919"
    INDEX 01 08:40:66
  TRACK 399 AUDIO
    TITLE "0:"
    INDEX 01 08:42:49
  TRACK 400 AUDIO
    TITLE "31:cjc023_6920"
    INDEX 01 08:43:03
  TRACK 401 AUDIO
    TITLE "0:"
    INDEX 01 08:44:63
  TRACK 402 AUDIO
    TITLE "28:cjc023_6921"
    INDEX 01 08:45:61
  TRACK 403 AUDIO
    TITLE "0:"
    INDEX 01 08:47:05
  TRACK 404 AUDIO
    TITLE "29:cjc023_6922"
    INDEX 01 08:47:54
  TRACK 405 AUDIO
    TITLE "0:"
    INDEX 01 08:49:43
  TRACK 406 AUDIO
    TITLE "30:cjc023_6923"
    INDEX 01 08:49:63
  TRACK 407 AUDIO
    TITLE "0:"
    INDEX 01 08:51:40
  TRACK 408 AUDIO
    TITLE "31:cjc023_6924"
    INDEX 01 08:51:65
  TRACK 409 AUDIO
    TITLE "0:"
    INDEX 01 08:53:45
  TRACK 410 AUDIO
    TITLE "28:cjc023_6925"
    INDEX 01 08:54:46
  TRACK 411 AUDIO
    TITLE "0:"
    INDEX 01 08:55:44
  TRACK 412 AUDIO
    TITLE "29:cjc023_6926"
    INDEX 01 08:56:14
  TRACK 413 AUDIO
    TITLE "0:"
    INDEX 01 08:58:18
  TRACK 414 AUDIO
    TITLE "30:cjc023_6927"
    INDEX 01 08:58:40
  TRACK 415 AUDIO
    TITLE "0:"
    INDEX 01 09:00:19
  TRACK 416 AUDIO
    TITLE "31:cjc023_6928"
    INDEX 01 09:00:41
  TRACK 417 AUDIO
    TITLE "0:"
    INDEX 01 09:02:18
  TRACK 418 AUDIO
    TITLE "28:cjc023_6929"
    INDEX 01 09:03:16
  TRACK 419 AUDIO
    TITLE "0:"
    INDEX 01 09:04:35
  TRACK 420 AUDIO
    TITLE "29:cjc023_6930"
    INDEX 01 09:05:05
  TRACK 421 AUDIO
    TITLE "0:"
    INDEX 01 09:08:09
  TRACK 422 AUDIO
    TITLE "30:cjc023_6931"
    INDEX 01 09:08:33
  TRACK 423 AUDIO
    TITLE "0:"
    INDEX 01 09:11:03
  TRACK 424 AUDIO
    TITLE "31:cjc023_6932"
    INDEX 01 09:11:25
  TRACK 425 AUDIO
    TITLE "0:"
    INDEX 01 09:13:69
  TRACK 426 AUDIO
    TITLE "28:cjc023_6933"
    INDEX 01 09:14:66
  TRACK 427 AUDIO
    TITLE "0:"
    INDEX 01 09:15:66
  TRACK 428 AUDIO
    TITLE "29:cjc023_6934"
    INDEX 01 09:16:42
  TRACK 429 AUDIO
    TITLE "0:"
    INDEX 01 09:19:56
  TRACK 430 AUDIO
    TITLE "30:cjc023_6935"
    INDEX 01 09:20:00
  TRACK 431 AUDIO
    TITLE "0:"
    INDEX 01 09:22:29
  TRACK 432 AUDIO
    TITLE "31:cjc023_6936"
    INDEX 01 09:22:46
  TRACK 433 AUDIO
    TITLE "0:"
    INDEX 01 09:25:02
  TRACK 434 AUDIO
    TITLE "28:cjc023_6937"
    INDEX 01 09:25:74
  TRACK 435 AUDIO
    TITLE "0:"
    INDEX 01 09:27:14
  TRACK 436 AUDIO
    TITLE "29:cjc023_6938"
    INDEX 01 09:27:61
  TRACK 437 AUDIO
    TITLE "0:"
    INDEX 01 09:30:46
  TRACK 438 AUDIO
    TITLE "30:cjc023_6939"
    INDEX 01 09:30:71
  TRACK 439 AUDIO
    TITLE "0:"
    INDEX 01 09:33:62
  TRACK 440 AUDIO
    TITLE "31:cjc023_6940"
    INDEX 01 09:34:10
  TRACK 441 AUDIO
    TITLE "0:"
    INDEX 01 09:37:03
  TRACK 442 AUDIO
    TITLE "28:cjc023_6941"
    INDEX 01 09:38:00
  TRACK 443 AUDIO
    TITLE "0:"
    INDEX 01 09:39:02
  TRACK 444 AUDIO
    TITLE "29:cjc023_6942"
    INDEX 01 09:39:51
  TRACK 445 AUDIO
    TITLE "0:"
    INDEX 01 09:43:25
  TRACK 446 AUDIO
    TITLE "30:cjc023_6943"
    INDEX 01 09:43:49
  TRACK 447 AUDIO
    TITLE "0:"
    INDEX 01 09:47:07
  TRACK 448 AUDIO
    TITLE "31:cjc023_6944"
    INDEX 01 09:47:27
  TRACK 449 AUDIO
    TITLE "0:"
    INDEX 01 09:50:62
  TRACK 450 AUDIO
    TITLE "28:cjc023_6945"
    INDEX 01 09:51:58
  TRACK 451 AUDIO
    TITLE "0:"
    INDEX 01 09:53:20
  TRACK 452 AUDIO
    TITLE "29:cjc023_6946"
    INDEX 01 09:53:65
  TRACK 453 AUDIO
    TITLE "0:"
    INDEX 01 09:56:14
  TRACK 454 AUDIO
    TITLE "30:cjc023_6947"
    INDEX 01 09:56:37
  TRACK 455 AUDIO
    TITLE "0:"
    INDEX 01 09:58:46
  TRACK 456 AUDIO
    TITLE "31:cjc023_6948"
    INDEX 01 09:58:66
  TRACK 457 AUDIO
    TITLE "0:"
    INDEX 01 10:00:72
  TRACK 458 AUDIO
    TITLE "28:cjc023_6949"
    INDEX 01 10:01:68
  TRACK 459 AUDIO
    TITLE "0:"
    INDEX 01 10:03:02
  TRACK 460 AUDIO
    TITLE "29:cjc023_6950"
    INDEX 01 10:03:47
  TRACK 461 AUDIO
    TITLE "0:"
    INDEX 01 10:06:28
  TRACK 462 AUDIO
    TITLE "30:cjc023_6951"
    INDEX 01 10:06:54
  TRACK 463 AUDIO
    TITLE "0:"
    INDEX 01 10:09:54
  TRACK 464 AUDIO
    TITLE "31:cjc023_6952"
    INDEX 01 10:10:00
  TRACK 465 AUDIO
    TITLE "0:"
    INDEX 01 10:13:03
  TRACK 466 AUDIO
    TITLE "28:cjc023_6953"
    INDEX 01 10:13:69
  TRACK 467 AUDIO
    TITLE "0:"
    INDEX 01 10:15:09
  TRACK 468 AUDIO
    TITLE "29:cjc023_6954"
    INDEX 01 10:15:54
  TRACK 469 AUDIO
    TITLE "0:"
    INDEX 01 10:18:10
  TRACK 470 AUDIO
    TITLE "30:cjc023_6955"
    INDEX 01 10:18:33
  TRACK 471 AUDIO
    TITLE "0:"
    INDEX 01 10:20:18
  TRACK 472 AUDIO
    TITLE "31:cjc023_6956"
    INDEX 01 10:20:38
  TRACK 473 AUDIO
    TITLE "0:"
    INDEX 01 10:22:23
  TRACK 474 AUDIO
    TITLE "28:cjc023_6957"
    INDEX 01 10:23:19
  TRACK 475 AUDIO
    TITLE "0:"
    INDEX 01 10:24:36
  TRACK 476 AUDIO
    TITLE "29:cjc023_6958"
    INDEX 01 10:25:10
  TRACK 477 AUDIO
    TITLE "0:"
    INDEX 01 10:27:22
  TRACK 478 AUDIO
    TITLE "30:cjc023_6959"
    INDEX 01 10:27:44
  TRACK 479 AUDIO
    TITLE "0:"
    INDEX 01 10:29:11
  TRACK 480 AUDIO
    TITLE "31:cjc023_6960"
    INDEX 01 10:29:33
  TRACK 481 AUDIO
    TITLE "0:"
    INDEX 01 10:31:03
  TRACK 482 AUDIO
    TITLE "28:cjc023_6961"
    INDEX 01 10:31:73
  TRACK 483 AUDIO
    TITLE "0:"
    INDEX 01 10:33:15
  TRACK 484 AUDIO
    TITLE "29:cjc023_6962"
    INDEX 01 10:33:62
  TRACK 485 AUDIO
    TITLE "0:"
    INDEX 01 10:35:63
  TRACK 486 AUDIO
    TITLE "30:cjc023_6963"
    INDEX 01 10:36:13
  TRACK 487 AUDIO
    TITLE "0:"
    INDEX 01 10:37:74
  TRACK 488 AUDIO
    TITLE "31:cjc023_6964"
    INDEX 01 10:38:22
  TRACK 489 AUDIO
    TITLE "0:"
    INDEX 01 10:40:09
  TRACK 490 AUDIO
    TITLE "28:cjc023_6965"
    INDEX 01 10:41:09
  TRACK 491 AUDIO
    TITLE "0:"
    INDEX 01 10:42:22
  TRACK 492 AUDIO
    TITLE "29:cjc023_6966"
    INDEX 01 10:43:00
  TRACK 493 AUDIO
    TITLE "0:"
    INDEX 01 10:45:56
  TRACK 494 AUDIO
    TITLE "30:cjc023_6967"
    INDEX 01 10:46:04
  TRACK 495 AUDIO
    TITLE "0:"
    INDEX 01 10:48:50
  TRACK 496 AUDIO
    TITLE "31:cjc023_6968"
    INDEX 01 10:49:02
  TRACK 497 AUDIO
    TITLE "0:"
    INDEX 01 10:51:48
  TRACK 498 AUDIO
    TITLE "28:cjc023_6969"
    INDEX 01 10:52:48
  TRACK 499 AUDIO
    TITLE "0:"
    INDEX 01 10:53:71
  TRACK 500 AUDIO
    TITLE "29:cjc023_6970"
    INDEX 01 10:54:43
  TRACK 501 AUDIO
    TITLE "0:"
    INDEX 01 10:56:44
  TRACK 502 AUDIO
    TITLE "30:cjc023_6971"
    INDEX 01 10:56:65
  TRACK 503 AUDIO
    TITLE "0:"
    INDEX 01 10:59:24
  TRACK 504 AUDIO
    TITLE "31:cjc023_6972"
    INDEX 01 10:59:46
  TRACK 505 AUDIO
    TITLE "0:"
    INDEX 01 11:02:03
  TRACK 506 AUDIO
    TITLE "28:cjc023_6973"
    INDEX 01 11:03:01
  TRACK 507 AUDIO
    TITLE "0:"
    INDEX 01 11:04:12
  TRACK 508 AUDIO
    TITLE "29:cjc023_6974"
    INDEX 01 11:04:61
  TRACK 509 AUDIO
    TITLE "0:"
    INDEX 01 11:07:57
  TRACK 510 AUDIO
    TITLE "30:cjc023_6975"
    INDEX 01 11:08:06
  TRACK 511 AUDIO
    TITLE "0:"
    INDEX 01 11:11:00
  TRACK 512 AUDIO
    TITLE "31:cjc023_6976"
    INDEX 01 11:11:20
  TRACK 513 AUDIO
    TITLE "0:"
    INDEX 01 11:14:16
  TRACK 514 AUDIO
    TITLE "28:cjc023_6977"
    INDEX 01 11:15:10
  TRACK 515 AUDIO
    TITLE "0:"
    INDEX 01 11:16:36
  TRACK 516 AUDIO
    TITLE "29:cjc023_6978"
    INDEX 01 11:17:09
  TRACK 517 AUDIO
    TITLE "0:"
    INDEX 01 11:20:44
  TRACK 518 AUDIO
    TITLE "30:cjc023_6979"
    INDEX 01 11:20:66
  TRACK 519 AUDIO
    TITLE "0:"
    INDEX 01 11:23:40
  TRACK 520 AUDIO
    TITLE "31:cjc023_6980"
    INDEX 01 11:23:62
  TRACK 521 AUDIO
    TITLE "0:"
    INDEX 01 11:26:39
  TRACK 522 AUDIO
    TITLE "28:cjc023_6981"
    INDEX 01 11:27:36
  TRACK 523 AUDIO
    TITLE "0:"
    INDEX 01 11:28:59
  TRACK 524 AUDIO
    TITLE "29:cjc023_6982"
    INDEX 01 11:29:31
  TRACK 525 AUDIO
    TITLE "0:"
    INDEX 01 11:31:09
  TRACK 526 AUDIO
    TITLE "30:cjc023_6983"
    INDEX 01 11:31:30
  TRACK 527 AUDIO
    TITLE "0:"
    INDEX 01 11:33:02
  TRACK 528 AUDIO
    TITLE "31:cjc023_6984"
    INDEX 01 11:33:23
  TRACK 529 AUDIO
    TITLE "0:"
    INDEX 01 11:34:68
  TRACK 530 AUDIO
    TITLE "28:cjc023_6985"
    INDEX 01 11:35:65
  TRACK 531 AUDIO
    TITLE "0:"
    INDEX 01 11:37:19
  TRACK 532 AUDIO
    TITLE "29:cjc023_6986"
    INDEX 01 11:37:68
  TRACK 533 AUDIO
    TITLE "0:"
    INDEX 01 11:39:43
  TRACK 534 AUDIO
    TITLE "30:cjc023_6987"
    INDEX 01 11:39:65
  TRACK 535 AUDIO
    TITLE "0:"
    INDEX 01 11:41:66
  TRACK 536 AUDIO
    TITLE "31:cjc023_6988"
    INDEX 01 11:42:12
  TRACK 537 AUDIO
    TITLE "0:"
    INDEX 01 11:44:13
  TRACK 538 AUDIO
    TITLE "28:cjc023_6989"
    INDEX 01 11:45:11
  TRACK 539 AUDIO
    TITLE "0:"
    INDEX 01 11:46:47
  TRACK 540 AUDIO
    TITLE "29:cjc023_6990"
    INDEX 01 11:47:19
  TRACK 541 AUDIO
    TITLE "0:"
    INDEX 01 11:50:63
  TRACK 542 AUDIO
    TITLE "30:cjc023_6991"
    INDEX 01 11:51:11
  TRACK 543 AUDIO
    TITLE "0:"
    INDEX 01 11:54:21
  TRACK 544 AUDIO
    TITLE "31:cjc023_6992"
    INDEX 01 11:54:43
  TRACK 545 AUDIO
    TITLE "0:"
    INDEX 01 11:57:53
  TRACK 546 AUDIO
    TITLE "28:cjc023_6993"
    INDEX 01 11:58:58
  TRACK 547 AUDIO
    TITLE "0:"
    INDEX 01 12:00:06
  TRACK 548 AUDIO
    TITLE "29:cjc023_6994"
    INDEX 01 12:00:53
  TRACK 549 AUDIO
    TITLE "0:"
    INDEX 01 12:03:65
  TRACK 550 AUDIO
    TITLE "30:cjc023_6995"
    INDEX 01 12:04:10
  TRACK 551 AUDIO
    TITLE "0:"
    INDEX 01 12:07:08
  TRACK 552 AUDIO
    TITLE "31:cjc023_6996"
    INDEX 01 12:07:30
  TRACK 553 AUDIO
    TITLE "0:"
    INDEX 01 12:10:28
  TRACK 554 AUDIO
    TITLE "28:cjc023_6997"
    INDEX 01 12:11:26
  TRACK 555 AUDIO
    TITLE "0:"
    INDEX 01 12:12:64
  TRACK 556 AUDIO
    TITLE "29:cjc023_6998"
    INDEX 01 12:13:38
  TRACK 557 AUDIO
    TITLE "0:"
    INDEX 01 12:16:19
  TRACK 558 AUDIO
    TITLE "30:cjc023_6999"
    INDEX 01 12:16:43
  TRACK 559 AUDIO
    TITLE "0:"
    INDEX 01 12:19:45
  TRACK 560 AUDIO
    TITLE "31:cjc023_7000"
    INDEX 01 12:19:64
  TRACK 561 AUDIO
    TITLE "0:"
    INDEX 01 12:22:67
  TRACK 562 AUDIO
    TITLE "28:cjc023_7001"
    INDEX 01 12:23:58
  TRACK 563 AUDIO
    TITLE "0:"
    INDEX 01 12:25:20
  TRACK 564 AUDIO
    TITLE "29:cjc023_7002"
    INDEX 01 12:25:67
  TRACK 565 AUDIO
    TITLE "0:"
    INDEX 01 12:28:05
  TRACK 566 AUDIO
    TITLE "30:cjc023_7003"
    INDEX 01 12:28:28
  TRACK 567 AUDIO
    TITLE "0:"
    INDEX 01 12:30:60
  TRACK 568 AUDIO
    TITLE "31:cjc023_7004"
    INDEX 01 12:31:05
  TRACK 569 AUDIO
    TITLE "0:"
    INDEX 01 12:33:37
  TRACK 570 AUDIO
    TITLE "28:cjc023_7005"
    INDEX 01 12:34:33
  TRACK 571 AUDIO
    TITLE "0:"
    INDEX 01 12:35:56
  TRACK 572 AUDIO
    TITLE "29:cjc023_7006"
    INDEX 01 12:36:26
  TRACK 573 AUDIO
    TITLE "0:"
    INDEX 01 12:38:70
  TRACK 574 AUDIO
    TITLE "30:cjc023_7007"
    INDEX 01 12:39:18
  TRACK 575 AUDIO
    TITLE "0:"
    INDEX 01 12:41:21
  TRACK 576 AUDIO
    TITLE "31:cjc023_7008"
    INDEX 01 12:41:43
  TRACK 577 AUDIO
    TITLE "0:"
    INDEX 01 12:43:49
  TRACK 578 AUDIO
    TITLE "28:cjc023_7009"
    INDEX 01 12:44:43
  TRACK 579 AUDIO
    TITLE "0:"
    INDEX 01 12:45:74
  TRACK 580 AUDIO
    TITLE "29:cjc023_7010"
    INDEX 01 12:46:46
  TRACK 581 AUDIO
    TITLE "0:"
    INDEX 01 12:48:43
  TRACK 582 AUDIO
    TITLE "30:cjc023_7011"
    INDEX 01 12:48:66
  TRACK 583 AUDIO
    TITLE "0:"
    INDEX 01 12:50:57
  TRACK 584 AUDIO
    TITLE "31:cjc023_7012"
    INDEX 01 12:51:02
  TRACK 585 AUDIO
    TITLE "0:"
    INDEX 01 12:52:70
  TRACK 586 AUDIO
    TITLE "28:cjc023_7013"
    INDEX 01 12:53:65
  TRACK 587 AUDIO
    TITLE "0:"
    INDEX 01 12:55:07
  TRACK 588 AUDIO
    TITLE "29:cjc023_7014"
    INDEX 01 12:55:54
  TRACK 589 AUDIO
    TITLE "0:"
    INDEX 01 12:57:53
  TRACK 590 AUDIO
    TITLE "30:cjc023_7015"
    INDEX 01 12:58:00
  TRACK 591 AUDIO
    TITLE "0:"
    INDEX 01 13:00:11
  TRACK 592 AUDIO
    TITLE "31:cjc023_7016"
    INDEX 01 13:00:32
  TRACK 593 AUDIO
    TITLE "0:"
    INDEX 01 13:02:43
  TRACK 594 AUDIO
    TITLE "28:cjc023_7017"
    INDEX 01 13:03:40
  TRACK 595 AUDIO
    TITLE "0:"
    INDEX 01 13:04:53
  TRACK 596 AUDIO
    TITLE "29:cjc023_7018"
    INDEX 01 13:05:23
  TRACK 597 AUDIO
    TITLE "0:"
    INDEX 01 13:08:06
  TRACK 598 AUDIO
    TITLE "30:cjc023_7019"
    INDEX 01 13:08:30
  TRACK 599 AUDIO
    TITLE "0:"
    INDEX 01 13:11:10
  TRACK 600 AUDIO
    TITLE "31:cjc023_7020"
    INDEX 01 13:11:30
  TRACK 601 AUDIO
    TITLE "0:"
    INDEX 01 13:14:11
  TRACK 602 AUDIO
    TITLE "28:cjc023_7021"
    INDEX 01 13:15:04
  TRACK 603 AUDIO
    TITLE "0:"
    INDEX 01 13:16:15
  TRACK 604 AUDIO
    TITLE "29:cjc023_7022"
    INDEX 01 13:16:64
  TRACK 605 AUDIO
    TITLE "0:"
    INDEX 01 13:19:29
  TRACK 606 AUDIO
    TITLE "30:cjc023_7023"
    INDEX 01 13:19:53
  TRACK 607 AUDIO
    TITLE "0:"
    INDEX 01 13:21:64
  TRACK 608 AUDIO
    TITLE "31:cjc023_7024"
    INDEX 01 13:22:10
  TRACK 609 AUDIO
    TITLE "0:"
    INDEX 01 13:24:21
  TRACK 610 AUDIO
    TITLE "28:cjc023_7025"
    INDEX 01 13:25:18
  TRACK 611 AUDIO
    TITLE "0:"
    INDEX 01 13:26:45
  TRACK 612 AUDIO
    TITLE "29:cjc023_7026"
    INDEX 01 13:27:17
  TRACK 613 AUDIO
    TITLE "0:"
    INDEX 01 13:29:28
  TRACK 614 AUDIO
    TITLE "30:cjc023_7027"
    INDEX 01 13:29:49
  TRACK 615 AUDIO
    TITLE "0:"
    INDEX 01 13:31:33
  TRACK 616 AUDIO
    TITLE "31:cjc023_7028"
    INDEX 01 13:31:62
  TRACK 617 AUDIO
    TITLE "0:"
    INDEX 01 13:33:45
  TRACK 618 AUDIO
    TITLE "28:cjc023_7029"
    INDEX 01 13:34:51
  TRACK 619 AUDIO
    TITLE "0:"
    INDEX 01 13:35:64
  TRACK 620 AUDIO
    TITLE "29:cjc023_7030"
    INDEX 01 13:36:36
  TRACK 621 AUDIO
    TITLE "0:"
    INDEX 01 13:38:64
  TRACK 622 AUDIO
    TITLE "30:cjc023_7031"
    INDEX 01 13:39:13
  TRACK 623 AUDIO
    TITLE "0:"
    INDEX 01 13:41:23
  TRACK 624 AUDIO
    TITLE "31:cjc023_7032"
    INDEX 01 13:41:43
  TRACK 625 AUDIO
    TITLE "0:"
    INDEX 01 13:43:53
  TRACK 626 AUDIO
    TITLE "28:cjc023_7033"
    INDEX 01 13:44:49
  TRACK 627 AUDIO
    TITLE "0:"
    INDEX 01 13:45:62
  TRACK 628 AUDIO
    TITLE "29:cjc023_7034"
    INDEX 01 13:46:32
  TRACK 629 AUDIO
    TITLE "0:"
    INDEX 01 13:49:42
  TRACK 630 AUDIO
    TITLE "30:cjc023_7035"
    INDEX 01 13:49:62
  TRACK 631 AUDIO
    TITLE "0:"
    INDEX 01 13:52:70
  TRACK 632 AUDIO
    TITLE "31:cjc023_7036"
    INDEX 01 13:53:13
  TRACK 633 AUDIO
    TITLE "0:"
    INDEX 01 13:56:19
  TRACK 634 AUDIO
    TITLE "28:cjc023_7037"
    INDEX 01 13:57:12
  TRACK 635 AUDIO
    TITLE "0:"
    INDEX 01 13:58:28
  TRACK 636 AUDIO
    TITLE "29:cjc023_7038"
    INDEX 01 13:58:73
  TRACK 637 AUDIO
    TITLE "0:"
    INDEX 01 14:00:36
  TRACK 638 AUDIO
    TITLE "30:cjc023_7039"
    INDEX 01 14:00:58
  TRACK 639 AUDIO
    TITLE "0:"
    INDEX 01 14:02:65
  TRACK 640 AUDIO
    TITLE "31:cjc023_7040"
    INDEX 01 14:03:11
  TRACK 641 AUDIO
    TITLE "0:"
    INDEX 01 14:05:18
  TRACK 642 AUDIO
    TITLE "28:cjc023_7041"
    INDEX 01 14:06:13
  TRACK 643 AUDIO
    TITLE "0:"
    INDEX 01 14:07:32
  TRACK 644 AUDIO
    TITLE "29:cjc023_7042"
    INDEX 01 14:08:02
  TRACK 645 AUDIO
    TITLE "0:"
    INDEX 01 14:10:42
  TRACK 646 AUDIO
    TITLE "30:cjc023_7043"
    INDEX 01 14:10:66
  TRACK 647 AUDIO
    TITLE "0:"
    INDEX 01 14:13:39
  TRACK 648 AUDIO
    TITLE "31:cjc023_7044"
    INDEX 01 14:13:60
  TRACK 649 AUDIO
    TITLE "0:"
    INDEX 01 14:16:33
  TRACK 650 AUDIO
    TITLE "28:cjc023_7045"
    INDEX 01 14:17:31
  TRACK 651 AUDIO
    TITLE "0:"
    INDEX 01 14:18:50
  TRACK 652 AUDIO
    TITLE "29:cjc023_7046"
    INDEX 01 14:19:20
  TRACK 653 AUDIO
    TITLE "0:"
    INDEX 01 14:21:29
  TRACK 654 AUDIO
    TITLE "30:cjc023_7047"
    INDEX 01 14:21:48
  TRACK 655 AUDIO
    TITLE "0:"
    INDEX 01 14:24:45
  TRACK 656 AUDIO
    TITLE "31:cjc023_7048"
    INDEX 01 14:24:62
  TRACK 657 AUDIO
    TITLE "0:"
    INDEX 01 14:27:59
  TRACK 658 AUDIO
    TITLE "28:cjc023_7049"
    INDEX 01 14:28:56
  TRACK 659 AUDIO
    TITLE "0:"
    INDEX 01 14:30:00
  TRACK 660 AUDIO
    TITLE "29:cjc023_7050"
    INDEX 01 14:30:47
  TRACK 661 AUDIO
    TITLE "0:"
    INDEX 01 14:33:00
  TRACK 662 AUDIO
    TITLE "30:cjc023_7051"
    INDEX 01 14:33:22
  TRACK 663 AUDIO
    TITLE "0:"
    INDEX 01 14:35:35
  TRACK 664 AUDIO
    TITLE "31:cjc023_7052"
    INDEX 01 14:35:56
  TRACK 665 AUDIO
    TITLE "0:"
    INDEX 01 14:37:67
  TRACK 666 AUDIO
    TITLE "28:cjc023_7053"
    INDEX 01 14:38:62
  TRACK 667 AUDIO
    TITLE "0:"
    INDEX 01 14:40:18
  TRACK 668 AUDIO
    TITLE "29:cjc023_7054"
    INDEX 01 14:40:67
  TRACK 669 AUDIO
    TITLE "0:"
    INDEX 01 14:45:11
  TRACK 670 AUDIO
    TITLE "30:cjc023_7055"
    INDEX 01 14:45:35
  TRACK 671 AUDIO
    TITLE "0:"
    INDEX 01 14:48:22
  TRACK 672 AUDIO
    TITLE "31:cjc023_7056"
    INDEX 01 14:48:43
  TRACK 673 AUDIO
    TITLE "0:"
    INDEX 01 14:51:30
  TRACK 674 AUDIO
    TITLE "28:cjc023_7057"
    INDEX 01 14:52:27
  TRACK 675 AUDIO
    TITLE "0:"
    INDEX 01 14:53:56
  TRACK 676 AUDIO
    TITLE "29:cjc023_7058"
    INDEX 01 14:54:26
  TRACK 677 AUDIO
    TITLE "0:"
    INDEX 01 14:56:31
  TRACK 678 AUDIO
    TITLE "30:cjc023_7059"
    INDEX 01 14:56:50
  TRACK 679 AUDIO
    TITLE "0:"
    INDEX 01 14:59:02
  TRACK 680 AUDIO
    TITLE "31:cjc023_7060"
    INDEX 01 14:59:23
  TRACK 681 AUDIO
    TITLE "0:"
    INDEX 01 15:01:50
  TRACK 682 AUDIO
    TITLE "28:cjc023_7061"
    INDEX 01 15:02:45
  TRACK 683 AUDIO
    TITLE "0:"
    INDEX 01 15:03:58
  TRACK 684 AUDIO
    TITLE "29:cjc023_7062"
    INDEX 01 15:04:28
  TRACK 685 AUDIO
    TITLE "0:"
    INDEX 01 15:07:62
  TRACK 686 AUDIO
    TITLE "30:cjc023_7063"
    INDEX 01 15:08:09
  TRACK 687 AUDIO
    TITLE "0:"
    INDEX 01 15:11:09
  TRACK 688 AUDIO
    TITLE "31:cjc023_7064"
    INDEX 01 15:11:32
  TRACK 689 AUDIO
    TITLE "0:"
    INDEX 01 15:14:35
  TRACK 690 AUDIO
    TITLE "28:cjc023_7065"
    INDEX 01 15:15:32
  TRACK 691 AUDIO
    TITLE "0:"
    INDEX 01 15:16:55
  TRACK 692 AUDIO
    TITLE "29:cjc023_7066"
    INDEX 01 15:17:27
  TRACK 693 AUDIO
    TITLE "0:"
    INDEX 01 15:19:30
  TRACK 694 AUDIO
    TITLE "30:cjc023_7067"
    INDEX 01 15:19:50
  TRACK 695 AUDIO
    TITLE "0:"
    INDEX 01 15:21:64
  TRACK 696 AUDIO
    TITLE "31:cjc023_7068"
    INDEX 01 15:22:11
  TRACK 697 AUDIO
    TITLE "0:"
    INDEX 01 15:24:21
  TRACK 698 AUDIO
    TITLE "28:cjc023_7069"
    INDEX 01 15:25:21
  TRACK 699 AUDIO
    TITLE "0:"
    INDEX 01 15:26:54
  TRACK 700 AUDIO
    TITLE "29:cjc023_7070"
    INDEX 01 15:27:26
  TRACK 701 AUDIO
    TITLE "0:"
    INDEX 01 15:29:69
  TRACK 702 AUDIO
    TITLE "30:cjc023_7071"
    INDEX 01 15:30:14
  TRACK 703 AUDIO
    TITLE "0:"
    INDEX 01 15:32:46
  TRACK 704 AUDIO
    TITLE "31:cjc023_7072"
    INDEX 01 15:32:72
  TRACK 705 AUDIO
    TITLE "0:"
    INDEX 01 15:35:27
  TRACK 706 AUDIO
    TITLE "28:cjc023_7073"
    INDEX 01 15:36:24
  TRACK 707 AUDIO
    TITLE "0:"
    INDEX 01 15:37:32
  TRACK 708 AUDIO
    TITLE "29:cjc023_7074"
    INDEX 01 15:38:04
  TRACK 709 AUDIO
    TITLE "0:"
    INDEX 01 15:39:44
  TRACK 710 AUDIO
    TITLE "30:cjc023_7075"
    INDEX 01 15:39:66
  TRACK 711 AUDIO
    TITLE "0:"
    INDEX 01 15:41:39
  TRACK 712 AUDIO
    TITLE "31:cjc023_7076"
    INDEX 01 15:41:61
  TRACK 713 AUDIO
    TITLE "0:"
    INDEX 01 15:43:36
  TRACK 714 AUDIO
    TITLE "28:cjc023_7077"
    INDEX 01 15:44:30
  TRACK 715 AUDIO
    TITLE "0:"
    INDEX 01 15:45:57
  TRACK 716 AUDIO
    TITLE "29:cjc023_7078"
    INDEX 01 15:46:25
  TRACK 717 AUDIO
    TITLE "0:"
    INDEX 01 15:49:21
  TRACK 718 AUDIO
    TITLE "30:cjc023_7079"
    INDEX 01 15:49:43
  TRACK 719 AUDIO
    TITLE "0:"
    INDEX 01 15:52:37
  TRACK 720 AUDIO
    TITLE "31:cjc023_7080"
    INDEX 01 15:52:59
  TRACK 721 AUDIO
    TITLE "0:"
    INDEX 01 15:55:51
  TRACK 722 AUDIO
    TITLE "28:cjc023_7081"
    INDEX 01 15:56:47
  TRACK 723 AUDIO
    TITLE "0:"
    INDEX 01 15:57:58
  TRACK 724 AUDIO
    TITLE "29:cjc023_7082"
    INDEX 01 15:58:26
  TRACK 725 AUDIO
    TITLE "0:"
    INDEX 01 16:01:11
  TRACK 726 AUDIO
    TITLE "30:cjc023_7083"
    INDEX 01 16:01:32
  TRACK 727 AUDIO
    TITLE "0:"
    INDEX 01 16:03:72
  TRACK 728 AUDIO
    TITLE "31:cjc023_7084"
    INDEX 01 16:04:17
  TRACK 729 AUDIO
    TITLE "0:"
    INDEX 01 16:06:57
  TRACK 730 AUDIO
    TITLE "28:cjc023_7085"
    INDEX 01 16:07:52
  TRACK 731 AUDIO
    TITLE "0:"
    INDEX 01 16:08:73
  TRACK 732 AUDIO
    TITLE "29:cjc023_7086"
    INDEX 01 16:09:45
  TRACK 733 AUDIO
    TITLE "0:"
    INDEX 01 16:12:30
  TRACK 734 AUDIO
    TITLE "30:cjc023_7087"
    INDEX 01 16:12:50
  TRACK 735 AUDIO
    TITLE "0:"
    INDEX 01 16:14:31
  TRACK 736 AUDIO
    TITLE "31:cjc023_7088"
    INDEX 01 16:14:54
  TRACK 737 AUDIO
    TITLE "0:"
    INDEX 01 16:16:36
  TRACK 738 AUDIO
    TITLE "28:cjc023_7089"
    INDEX 01 16:17:35
  TRACK 739 AUDIO
    TITLE "0:"
    INDEX 01 16:18:60
  TRACK 740 AUDIO
    TITLE "29:cjc023_7090"
    INDEX 01 16:19:32
  TRACK 741 AUDIO
    TITLE "0:"
    INDEX 01 16:20:71
  TRACK 742 AUDIO
    TITLE "30:cjc023_7091"
    INDEX 01 16:21:15
  TRACK 743 AUDIO
    TITLE "0:"
    INDEX 01 16:23:20
  TRACK 744 AUDIO
    TITLE "31:cjc023_7092"
    INDEX 01 16:23:40
  TRACK 745 AUDIO
    TITLE "0:"
    INDEX 01 16:25:46
  TRACK 746 AUDIO
    TITLE "28:cjc023_7093"
    INDEX 01 16:26:38
  TRACK 747 AUDIO
    TITLE "0:"
    INDEX 01 16:27:53
  TRACK 748 AUDIO
    TITLE "29:cjc023_7094"
    INDEX 01 16:28:23
  TRACK 749 AUDIO
    TITLE "0:"
    INDEX 01 16:30:38
  TRACK 750 AUDIO
    TITLE "30:cjc023_7095"
    INDEX 01 16:30:59
  TRACK 751 AUDIO
    TITLE "0:"
    INDEX 01 16:32:50
  TRACK 752 AUDIO
    TITLE "31:cjc023_7096"
    INDEX 01 16:32:68
  TRACK 753 AUDIO
    TITLE "0:"
    INDEX 01 16:34:59
  TRACK 754 AUDIO
    TITLE "28:cjc023_7097"
    INDEX 01 16:35:57
  TRACK 755 AUDIO
    TITLE "0:"
    INDEX 01 16:36:66
  TRACK 756 AUDIO
    TITLE "29:cjc023_7098"
    INDEX 01 16:37:38
  TRACK 757 AUDIO
    TITLE "0:"
    INDEX 01 16:39:11
  TRACK 758 AUDIO
    TITLE "30:cjc023_7099"
    INDEX 01 16:39:35
  TRACK 759 AUDIO
    TITLE "0:"
    INDEX 01 16:41:02
  TRACK 760 AUDIO
    TITLE "31:cjc023_7100"
    INDEX 01 16:41:22
  TRACK 761 AUDIO
    TITLE "0:"
    INDEX 01 16:42:65
  TRACK 762 AUDIO
    TITLE "28:cjc023_7101"
    INDEX 01 16:43:60
  TRACK 763 AUDIO
    TITLE "0:"
    INDEX 01 16:44:73
  TRACK 764 AUDIO
    TITLE "29:cjc023_7102"
    INDEX 01 16:45:45
  TRACK 765 AUDIO
    TITLE "0:"
    INDEX 01 16:48:08
  TRACK 766 AUDIO
    TITLE "30:cjc023_7103"
    INDEX 01 16:48:30
  TRACK 767 AUDIO
    TITLE "0:"
    INDEX 01 16:50:50
  TRACK 768 AUDIO
    TITLE "31:cjc023_7104"
    INDEX 01 16:50:70
  TRACK 769 AUDIO
    TITLE "0:"
    INDEX 01 16:53:15
  TRACK 770 AUDIO
    TITLE "28:cjc023_7105"
    INDEX 01 16:54:11
  TRACK 771 AUDIO
    TITLE "0:"
    INDEX 01 16:55:30
  TRACK 772 AUDIO
    TITLE "29:cjc023_7106"
    INDEX 01 16:56:02
  TRACK 773 AUDIO
    TITLE "0:"
    INDEX 01 16:58:24
  TRACK 774 AUDIO
    TITLE "30:cjc023_7107"
    INDEX 01 16:58:46
  TRACK 775 AUDIO
    TITLE "0:"
    INDEX 01 17:02:12
  TRACK 776 AUDIO
    TITLE "31:cjc023_7108"
    INDEX 01 17:02:36
  TRACK 777 AUDIO
    TITLE "0:"
    INDEX 01 17:06:00
  TRACK 778 AUDIO
    TITLE "28:cjc023_7109"
    INDEX 01 17:07:00
  TRACK 779 AUDIO
    TITLE "0:"
    INDEX 01 17:08:05
  TRACK 780 AUDIO
    TITLE "29:cjc023_7110"
    INDEX 01 17:08:52
  TRACK 781 AUDIO
    TITLE "0:"
    INDEX 01 17:10:33
  TRACK 782 AUDIO
    TITLE "30:cjc023_7111"
    INDEX 01 17:10:55
  TRACK 783 AUDIO
    TITLE "0:"
    INDEX 01 17:12:54
  TRACK 784 AUDIO
    TITLE "31:cjc023_7112"
    INDEX 01 17:13:00
  TRACK 785 AUDIO
    TITLE "0:"
    INDEX 01 17:14:74
  TRACK 786 AUDIO
    TITLE "28:cjc023_7113"
    INDEX 01 17:15:70
  TRACK 787 AUDIO
    TITLE "0:"
    INDEX 01 17:17:22
  TRACK 788 AUDIO
    TITLE "29:cjc023_7114"
    INDEX 01 17:17:71
  TRACK 789 AUDIO
    TITLE "0:"
    INDEX 01 17:20:44
  TRACK 790 AUDIO
    TITLE "30:cjc023_7115"
    INDEX 01 17:20:65
  TRACK 791 AUDIO
    TITLE "0:"
    INDEX 01 17:23:32
  TRACK 792 AUDIO
    TITLE "31:cjc023_7116"
    INDEX 01 17:23:52
  TRACK 793 AUDIO
    TITLE "0:"
    INDEX 01 17:26:19
  TRACK 794 AUDIO
    TITLE "28:cjc023_7117"
    INDEX 01 17:27:14
  TRACK 795 AUDIO
    TITLE "0:"
    INDEX 01 17:28:27
  TRACK 796 AUDIO
    TITLE "29:cjc023_7118"
    INDEX 01 17:28:71
  TRACK 797 AUDIO
    TITLE "0:"
    INDEX 01 17:32:00
  TRACK 798 AUDIO
    TITLE "30:cjc023_7119"
    INDEX 01 17:32:19
  TRACK 799 AUDIO
    TITLE "0:"
    INDEX 01 17:34:26
  TRACK 800 AUDIO
    TITLE "31:cjc023_7120"
    INDEX 01 17:34:48
  TRACK 801 AUDIO
    TITLE "0:"
    INDEX 01 17:36:56
